# xmcd
#
# Track frame offsets:
#	150
#	16561
#	17744
#	32976
#	33590
#	47446
#	59934
#	79970
#	97178
#	110011
#	127931
#	144187
#	156441
#	175953
#	194184
#	194951
#	207821
#	224193
#
# Disc length: 3157 seconds
# Revision: 2
# Processed by: cddbd v1.5.2PL0 Copyright (c) Steve Scherf et al.
# Submitted via: dBpowerAMP V12.0
#
DISCID=1a0c5312
DTITLE=Various Artist - Hillcrest Pure Country 66
DYEAR=2012
DGENRE=Country
TTITLE0=Vannatta - This Old Heart of Mine
TTITLE1=Blake Emmons - Blake Radio ID
TTITLE2=Blake Emmons - Who You Are
TTITLE3=Clelia Adams - Clelia Radio ID
TTITLE4=Clelia Adams - Baby We're Really In Love
TTITLE5=Lonnie Bartmess - All Over You
TTITLE6=Lynn Anderson - Day One
TTITLE7=Hermann Lammers Meyer - Fiddlin' Man
TTITLE8=Kathy Coleman - Til, The Cows Come Home
TTITLE9=Marty Rivers - Just In Case
TTITLE10=Russ Still - NashVegas
TTITLE11=Belle Cannon - Corner Stone
TTITLE12=Robb Moss - Fool's Gold
TTITLE13=Darin Warner - Last Bridge
TTITLE14=Sherry Kennedy - Sherry Radio ID
TTITLE15=Sherry Kennedy - Here After
TTITLE16=Will Ardell - Save Me
TTITLE17=Long and Short Of It, The - My Life Is So Black and White
EXTD=
EXTT0=
EXTT1=
EXTT2=
EXTT3=
EXTT4=
EXTT5=
EXTT6=
EXTT7=
EXTT8=
EXTT9=
EXTT10=
EXTT11=
EXTT12=
EXTT13=
EXTT14=
EXTT15=
EXTT16=
EXTT17=
PLAYORDER=
